<svg width="47" height="40" viewBox="0 0 47 40" fill="none" xmlns="http://www.w3.org/2000/svg">
<g filter="url(#filter0_d_33_94)">
<path d="M8.875 8.57781L4 16.5778L9.11875 24.8445C12.8562 31.1111 14.3187 32.8445 15.05 31.6445C15.7812 30.4445 15.375 28.7111 13.425 24.7111L10.825 19.2445L26.9125 18.9778C40.5625 18.5778 43 18.3111 43 16.5778C43 14.8445 40.5625 14.5778 26.9125 14.1778L10.825 13.9111L13.3437 8.57781C15.6187 3.91115 16.025 0.577814 14.3187 0.577814C13.9937 0.577814 11.5562 4.17781 8.875 8.57781Z" fill="black"/>
<path d="M10.8167 18.7445L26.901 18.4779C33.7365 18.2776 37.7234 18.1112 40.0038 17.7829C41.1541 17.6173 41.7948 17.4192 42.1416 17.2033C42.3038 17.1024 42.3839 17.0081 42.428 16.9258C42.4727 16.8426 42.5 16.7352 42.5 16.5778C42.5 16.4205 42.4727 16.3131 42.428 16.2298C42.3839 16.1475 42.3038 16.0532 42.1416 15.9523C41.7948 15.7364 41.1541 15.5383 40.0038 15.3727C37.7234 15.0445 33.7365 14.878 26.901 14.6777L10.8167 14.4111L10.042 14.3982L10.3729 13.6976L12.8916 8.36429L12.8916 8.36428L12.8943 8.35871C14.0215 6.04648 14.665 4.10417 14.8279 2.76732C14.9104 2.0904 14.861 1.63379 14.7471 1.36966C14.6938 1.24616 14.6334 1.18058 14.5793 1.14389C14.5489 1.12329 14.5099 1.10448 14.4575 1.09224C14.3729 1.18078 14.2545 1.32109 14.1027 1.51612C13.7964 1.90982 13.3844 2.48705 12.894 3.2088C11.9148 4.65008 10.6397 6.64276 9.30197 8.838L4.5868 16.5757L9.54385 24.5813L9.54391 24.5812L9.54817 24.5884C11.4208 27.7281 12.6991 29.6893 13.5896 30.7171C14.0488 31.247 14.3366 31.4453 14.4872 31.4915C14.509 31.4982 14.5216 31.4999 14.528 31.5C14.5373 31.494 14.5721 31.4679 14.623 31.3843C14.8959 30.9366 14.9929 30.3521 14.7562 29.3419C14.516 28.3174 13.9491 26.9272 12.9756 24.9302L12.9755 24.9303L12.9735 24.9259L10.3735 19.4592L10.0397 18.7574L10.8167 18.7445ZM14.5331 31.4995C14.533 31.4993 14.5315 31.4993 14.5292 31.5C14.5321 31.5 14.5332 31.4997 14.5331 31.4995Z" stroke="black"/>
</g>
<defs>
<filter id="filter0_d_33_94" x="0" y="0.577881" width="47" height="39.4221" filterUnits="userSpaceOnUse" color-interpolation-filters="sRGB">
<feFlood flood-opacity="0" result="BackgroundImageFix"/>
<feColorMatrix in="SourceAlpha" type="matrix" values="0 0 0 0 0 0 0 0 0 0 0 0 0 0 0 0 0 0 127 0" result="hardAlpha"/>
<feOffset dy="4"/>
<feGaussianBlur stdDeviation="2"/>
<feComposite in2="hardAlpha" operator="out"/>
<feColorMatrix type="matrix" values="0 0 0 0 0 0 0 0 0 0 0 0 0 0 0 0 0 0 0.25 0"/>
<feBlend mode="normal" in2="BackgroundImageFix" result="effect1_dropShadow_33_94"/>
<feBlend mode="normal" in="SourceGraphic" in2="effect1_dropShadow_33_94" result="shape"/>
</filter>
</defs>
</svg>
